<?xml version="1.0" encoding="UTF-8" standalone="no"?>
<!-- Created with Inkscape (http://www.inkscape.org/) -->

<svg
   xmlns:dc="http://purl.org/dc/elements/1.1/"
   xmlns:cc="http://creativecommons.org/ns#"
   xmlns:rdf="http://www.w3.org/1999/02/22-rdf-syntax-ns#"
   xmlns:svg="http://www.w3.org/2000/svg"
   xmlns="http://www.w3.org/2000/svg"
   version="1.2"
   width="235"
   height="41"
   id="svg2">
  <defs
     id="defs4" />
  <metadata
     id="metadata7">
    <rdf:RDF>
      <cc:Work
         rdf:about="">
        <dc:format>image/svg+xml</dc:format>
        <dc:type
           rdf:resource="http://purl.org/dc/dcmitype/StillImage" />
        <dc:title></dc:title>
      </cc:Work>
    </rdf:RDF>
  </metadata>
  <g
     transform="translate(0,-1011.3622)"
     id="layer1">
    <text
       x="141.93227"
       y="1046.6034"
       id="textrechts"
       xml:space="preserve"
       style="font-size:40px;font-style:normal;font-weight:normal;line-height:125%;letter-spacing:0px;word-spacing:0px;fill:#e6e6e6;fill-opacity:1;stroke:none;font-family:Sans"><tspan
         x="141.93227"
         y="1046.6034"
         id="tspan3007"
         style="font-weight:bold;fill:#e6e6e6;-inkscape-font-specification:Sans Bold">RSE</tspan></text>
    <text
       x="96.547096"
       y="1078.0873"
       transform="scale(1.0283988,0.97238541)"
       id="text3780"
       xml:space="preserve"
       style="font-size:61.21979904px;font-style:normal;font-weight:normal;line-height:125%;letter-spacing:0px;word-spacing:0px;fill:#8d3435;fill-opacity:1;stroke:none;font-family:Sans"><tspan
         x="96.547096"
         y="1078.0873"
         id="tspan3782"
         style="font-style:normal;font-variant:normal;font-stretch:normal;fill:#8d3435;fill-opacity:1;font-family:URW Gothic L;-inkscape-font-specification:URW Gothic L Book">a</tspan></text>
    <g
       transform="translate(-0.51129259,20.962997)"
       id="textlinks"
       style="font-size:40px;font-style:normal;font-weight:normal;line-height:125%;letter-spacing:0px;word-spacing:0px;fill:#e6e6e6;fill-opacity:1;stroke:none;font-family:Sans">
      <path
         d="m 9.4802513,996.43298 7.5195317,0 0,11.11332 11.09375,0 0,-11.11332 7.519531,0 0,29.16012 -7.519531,0 0,-12.3632 -11.09375,0 0,12.3632 -7.5195317,0 0,-29.16012"
         id="path3001"
         style="font-weight:bold;fill:#e6e6e6;-inkscape-font-specification:Sans Bold" />
      <path
         d="m 56.316189,1001.3549 c -2.291682,0 -4.069024,0.8463 -5.332031,2.539 -1.263032,1.6927 -1.894541,4.0756 -1.894532,7.1485 -9e-6,3.0599 0.6315,5.4362 1.894532,7.1289 1.263007,1.6927 3.040349,2.539 5.332031,2.539 2.304668,0 4.08852,-0.8463 5.351562,-2.539 1.262998,-1.6927 1.894507,-4.069 1.894532,-7.1289 -2.5e-5,-3.0729 -0.631534,-5.4558 -1.894532,-7.1485 -1.263042,-1.6927 -3.046894,-2.539 -5.351562,-2.539 m 0,-5.44926 c 4.687478,3e-5 8.359349,1.34117 11.015625,4.02344 2.656219,2.68232 3.984343,6.38672 3.984375,11.11332 -3.2e-5,4.7135 -1.328156,8.4114 -3.984375,11.0937 -2.656276,2.6823 -6.328147,4.0234 -11.015625,4.0234 -4.674492,0 -8.346363,-1.3411 -11.015625,-4.0234 -2.656254,-2.6823 -3.984377,-6.3802 -3.984375,-11.0937 -2e-6,-4.7266 1.328121,-8.431 3.984375,-11.11332 2.669262,-2.68227 6.341133,-4.02341 11.015625,-4.02344"
         id="path3003"
         style="font-weight:bold;fill:#e6e6e6;-inkscape-font-specification:Sans Bold" />
      <path
         d="m 76.980251,996.43298 7.519532,0 0,23.47652 13.203125,0 0,5.6836 -20.722657,0 0,-29.16012"
         id="path3005"
         style="font-weight:bold;fill:#e6e6e6;-inkscape-font-specification:Sans Bold" />
    </g>
  </g>
</svg>
