<?xml version="1.0" encoding="UTF-8" standalone="no"?>
<!-- Created with Inkscape (http://www.inkscape.org/) -->

<svg
   xmlns:dc="http://purl.org/dc/elements/1.1/"
   xmlns:cc="http://creativecommons.org/ns#"
   xmlns:rdf="http://www.w3.org/1999/02/22-rdf-syntax-ns#"
   xmlns:svg="http://www.w3.org/2000/svg"
   xmlns="http://www.w3.org/2000/svg"
   xmlns:sodipodi="http://sodipodi.sourceforge.net/DTD/sodipodi-0.dtd"
   xmlns:inkscape="http://www.inkscape.org/namespaces/inkscape"
   version="1.2"
   width="235"
   height="60"
   id="svg2"
   inkscape:version="0.48.3.1 r9886"
   sodipodi:docname="title-holarse.svg">
  <sodipodi:namedview
     pagecolor="#ffffff"
     bordercolor="#666666"
     borderopacity="1"
     objecttolerance="10"
     gridtolerance="10"
     guidetolerance="10"
     inkscape:pageopacity="0"
     inkscape:pageshadow="2"
     inkscape:window-width="1855"
     inkscape:window-height="1056"
     id="namedview20"
     showgrid="false"
     inkscape:zoom="5.4638298"
     inkscape:cx="107.36726"
     inkscape:cy="30.020992"
     inkscape:window-x="65"
     inkscape:window-y="24"
     inkscape:window-maximized="1"
     inkscape:current-layer="svg2" />
  <defs
     id="defs4" />
  <metadata
     id="metadata7">
    <rdf:RDF>
      <cc:Work
         rdf:about="">
        <dc:format>image/svg+xml</dc:format>
        <dc:type
           rdf:resource="http://purl.org/dc/dcmitype/StillImage" />
        <dc:title />
      </cc:Work>
    </rdf:RDF>
  </metadata>
  <g
     transform="translate(0,-992.36218)"
     id="layer1">
    <text
       x="145.00002"
       y="1025.5764"
       id="textrechts"
       xml:space="preserve"
       style="font-size:40px;font-style:normal;font-weight:normal;line-height:125%;letter-spacing:0px;word-spacing:0px;fill:#e6e6e6;fill-opacity:1;stroke:none;font-family:Sans"><tspan
         x="145.00002"
         y="1025.5764"
         id="tspan3007"
         style="font-weight:bold;fill:#e6e6e6;-inkscape-font-specification:Sans Bold">RSE</tspan></text>
    <text
       x="11.441265"
       y="1048.5889"
       id="textuntenlinks"
       xml:space="preserve"
       style="font-size:40px;font-style:normal;font-weight:normal;line-height:125%;letter-spacing:0px;word-spacing:0px;fill:#e6e6e6;fill-opacity:1;stroke:none;font-family:Sans"><tspan
         x="11.441265"
         y="1048.5889"
         id="tspan3011"
         style="font-size:16px;font-weight:bold;fill:#e6e6e6;-inkscape-font-specification:Sans Bold">SPIELEN UNTER</tspan></text>
    <text
       x="157.17578"
       y="1048.5948"
       id="textuntenrechts"
       xml:space="preserve"
       style="font-size:40px;font-style:normal;font-weight:normal;line-height:125%;letter-spacing:0px;word-spacing:0px;fill:#000000;fill-opacity:1;stroke:none;font-family:Sans"><tspan
         x="157.17578"
         y="1048.5948"
         id="tspan3015"
         style="font-size:16px;font-weight:bold;fill:#8d3435;fill-opacity:1;-inkscape-font-specification:Sans Bold">LINUX</tspan></text>
    <rect
       width="90.661194"
       height="6.3134532"
       x="142.93657"
       y="1027.866"
       id="rect2992"
       style="fill:#8d3435;fill-opacity:1;fill-rule:evenodd;stroke:none" />
    <rect
       width="99.752563"
       height="6.3134532"
       x="1.2626921"
       y="1027.9922"
       id="rect2992-8"
       style="fill:#8d3435;fill-opacity:1;fill-rule:evenodd;stroke:none" />
    <text
       x="95.335915"
       y="1061.9697"
       transform="scale(1.0284483,0.9723386)"
       id="text3780"
       xml:space="preserve"
       style="font-size:66.27005768px;font-style:normal;font-weight:normal;line-height:125%;letter-spacing:0px;word-spacing:0px;fill:#8d3435;fill-opacity:1;stroke:none;font-family:Sans"><tspan
         x="95.335915"
         y="1061.9697"
         id="tspan3782"
         style="font-style:normal;font-variant:normal;font-stretch:normal;fill:#8d3435;fill-opacity:1;font-family:URW Gothic L;-inkscape-font-specification:URW Gothic L Book">a</tspan></text>
    <g
       id="textlinks"
       style="font-size:40px;font-style:normal;font-weight:normal;line-height:125%;letter-spacing:0px;word-spacing:0px;fill:#e6e6e6;fill-opacity:1;stroke:none;font-family:Sans">
      <path
         d="m 9.4802513,996.43298 7.5195317,0 0,11.11332 11.09375,0 0,-11.11332 7.519531,0 0,29.16012 -7.519531,0 0,-12.3632 -11.09375,0 0,12.3632 -7.5195317,0 0,-29.16012"
         id="path3001"
         style="font-weight:bold;fill:#e6e6e6;-inkscape-font-specification:Sans Bold" />
      <path
         d="m 56.316189,1001.3549 c -2.291682,0 -4.069024,0.8463 -5.332031,2.539 -1.263032,1.6927 -1.894541,4.0756 -1.894532,7.1485 -9e-6,3.0599 0.6315,5.4362 1.894532,7.1289 1.263007,1.6927 3.040349,2.539 5.332031,2.539 2.304668,0 4.08852,-0.8463 5.351562,-2.539 1.262998,-1.6927 1.894507,-4.069 1.894532,-7.1289 -2.5e-5,-3.0729 -0.631534,-5.4558 -1.894532,-7.1485 -1.263042,-1.6927 -3.046894,-2.539 -5.351562,-2.539 m 0,-5.44926 c 4.687478,3e-5 8.359349,1.34117 11.015625,4.02344 2.656219,2.68232 3.984343,6.38672 3.984375,11.11332 -3.2e-5,4.7135 -1.328156,8.4114 -3.984375,11.0937 -2.656276,2.6823 -6.328147,4.0234 -11.015625,4.0234 -4.674492,0 -8.346363,-1.3411 -11.015625,-4.0234 -2.656254,-2.6823 -3.984377,-6.3802 -3.984375,-11.0937 -2e-6,-4.7266 1.328121,-8.431 3.984375,-11.11332 2.669262,-2.68227 6.341133,-4.02341 11.015625,-4.02344"
         id="path3003"
         style="font-weight:bold;fill:#e6e6e6;-inkscape-font-specification:Sans Bold" />
      <path
         d="m 76.980251,996.43298 7.519532,0 0,23.47652 13.203125,0 0,5.6836 -20.722657,0 0,-29.16012"
         id="path3005"
         style="font-weight:bold;fill:#e6e6e6;-inkscape-font-specification:Sans Bold" />
    </g>
  </g>
  <path
     style="fill:#000000"
     d="m 9.633619,18.686563 0,-14.5502339 3.660436,0 3.660436,0 0,5.5821652 0,5.5821647 5.582165,0 5.582166,0 0,-5.5821647 0,-5.5821652 3.753048,0 3.753049,0 -0.04686,14.5044779 -0.04686,14.504479 -3.706192,0.04955 -3.706191,0.04954 0,-6.22653 0,-6.226531 -5.582166,0 -5.582165,0 0,6.222741 0,6.222741 -3.660436,0 -3.660436,0 0,-14.550233 z"
     id="path2997"
     inkscape:connector-curvature="0" />
  <path
     style="fill:#000000"
     d="M 54.15874,33.596614 C 48.534274,33.029211 44.408796,30.076905 42.559457,25.29585 42.243603,24.479278 41.874253,23.193475 41.73868,22.43851 c -0.296257,-1.649766 -0.333993,-5.73362 -0.06691,-7.241503 0.852701,-4.814208 3.594959,-8.4706197 7.71524,-10.2871745 1.98822,-0.8765691 3.908108,-1.2133347 6.917174,-1.2133347 3.36563,0 5.196747,0.3791411 7.686916,1.5916125 1.242445,0.60495 1.871416,1.0719647 3.123737,2.3193932 2.48438,2.4746735 3.650648,5.1434075 4.005903,9.1665815 0.318061,3.60196 -0.214569,6.877105 -1.574002,9.678552 -1.767835,3.643066 -5.398315,6.249672 -9.673629,6.945464 -1.73354,0.282126 -4.078141,0.363576 -5.714365,0.198513 l 0,0 z m 4.88151,-5.719706 c 2.816897,-1.037661 4.584302,-4.580851 4.584302,-9.190345 0,-3.561115 -1.006502,-6.44026 -2.835906,-8.112231 -1.2903,-1.1792614 -2.409721,-1.5684 -4.484466,-1.5589118 -4.206093,0.019235 -6.565163,2.6006968 -7.153328,7.8276788 -0.471751,4.192415 0.654714,8.273741 2.779097,10.069015 1.767532,1.493707 4.622754,1.881131 7.110301,0.964794 z"
     id="path2999"
     inkscape:connector-curvature="0" />
  <path
     style="fill:#000000"
     d="m 76.985644,18.686563 0,-14.5502339 3.751947,0 3.751947,0 0,11.7133959 0,11.713395 6.588785,0 6.588785,0 0,2.836838 0,2.836838 -10.340732,0 -10.340732,0 0,-14.550233 z"
     id="path3002"
     inkscape:connector-curvature="0" />
  <path
     style="fill:#000000"
     d="m 148.73019,18.669341 0,-14.5674548 7.45814,0.082596 c 6.85878,0.075959 7.57976,0.1139575 8.97157,0.4728436 2.78586,0.7183487 4.27032,1.7481127 5.17806,3.5919934 1.51686,3.0811895 1.0167,7.0711495 -1.16081,9.2600695 -0.42466,0.426888 -1.36922,1.060842 -2.09902,1.408786 -0.7298,0.347944 -1.32691,0.660808 -1.32691,0.695252 0,0.03444 0.39121,0.235265 0.86935,0.446267 1.94529,0.85844 3.04951,2.436288 6.0896,8.701553 l 2.17166,4.475549 -3.8823,0 -3.8823,0 -2.00991,-4.055724 c -3.20487,-6.466966 -3.70733,-6.96154 -7.10906,-6.997486 l -1.85568,-0.01961 -0.0484,5.53641 -0.0484,5.536409 -3.65776,0 -3.65775,0 0,-14.567455 z m 13.08356,-1.976935 c 1.44839,-0.617572 1.95483,-1.484132 1.97264,-3.375376 0.013,-1.383829 -0.30757,-2.277129 -1.05177,-2.930551 -0.80059,-0.7029231 -1.96684,-0.9425175 -4.58781,-0.9425175 l -2.09575,0 0,3.7214435 c 0,2.046794 0.0618,3.785334 0.13727,3.863422 0.26213,0.27113 4.84304,-0.0028 5.62542,-0.336421 l 0,0 z"
     id="path3004"
     inkscape:connector-curvature="0" />
  <path
     style="fill:#000000"
     d="m 187.30538,33.594591 c -2.14711,-0.223673 -4.83692,-0.785008 -6.72939,-1.404354 l -1.55569,-0.509126 -0.0502,-3.065615 c -0.0276,-1.686089 -0.005,-3.065615 0.051,-3.065615 0.0556,0 0.57237,0.236791 1.14831,0.526204 5.53031,2.779021 12.05862,3.107157 13.84247,0.695772 0.53214,-0.719347 0.53588,-2.447844 0.007,-3.17604 -0.56659,-0.779922 -2.0582,-1.445918 -4.4374,-1.981275 -6.36082,-1.431283 -8.59388,-2.556696 -9.86765,-4.973062 -1.72381,-3.270102 -1.11377,-7.7886849 1.38338,-10.2467566 2.27258,-2.2370204 6.04719,-3.1254914 11.19231,-2.634459 2.22032,0.2118988 4.9744,0.6734435 6.54976,1.0976427 l 0.77111,0.2076399 0,2.9212945 c 0,1.606712 -0.0682,2.9212945 -0.15146,2.9212945 -0.0833,0 -0.66541,-0.208835 -1.29357,-0.464077 -2.28231,-0.9273875 -4.848,-1.4316627 -7.34001,-1.4426511 -2.6122,-0.011519 -3.81862,0.2890648 -4.65217,1.1591001 -0.90082,0.940252 -0.97731,2.796302 -0.14624,3.548411 0.64431,0.583093 2.05534,1.050074 5.0968,1.686794 4.73995,0.992289 7.00088,1.878165 8.54261,3.34715 1.39281,1.32709 2.17915,4.365613 1.82152,7.038529 -0.58873,4.400148 -3.00672,6.820822 -7.62079,7.629275 -1.61672,0.283272 -4.76167,0.371428 -6.56156,0.183924 l 0,0 z"
     id="path3006"
     inkscape:connector-curvature="0" />
  <path
     style="fill:#000000"
     d="m 208.3953,18.686563 0,-14.5502339 10.0662,0 10.0662,0 0,2.7453271 0,2.7453271 -6.40576,0 -6.40577,0 0,2.8368377 0,2.836838 6.03972,0 6.03972,0 0,2.745327 0,2.745328 -6.03972,0 -6.03972,0 0,3.385903 0,3.385903 6.58879,0 6.58878,0 0,2.836838 0,2.836838 -10.24922,0 -10.24922,0 0,-14.550233 z"
     id="path3008"
     inkscape:connector-curvature="0" />
  <path
     style="fill:#000000"
     d="m 141.40932,50.321642 0,-5.79288 3.21112,0.10376 c 2.87929,0.09304 3.29913,0.14791 4.06273,0.531003 0.46838,0.234984 1.00906,0.644324 1.20152,0.909646 0.44562,0.614321 0.59792,1.938595 0.31986,2.781139 -0.22702,0.687873 -1.29996,1.769558 -1.75526,1.769558 -0.14749,0 -0.26816,0.08236 -0.26816,0.183022 0,0.100662 0.11376,0.183022 0.25281,0.183022 0.4994,0 1.44064,1.222243 2.3246,3.018575 0.495,1.005913 0.9,1.891281 0.9,1.967484 0,0.0762 -0.66162,0.138551 -1.47028,0.138551 l -1.47028,0 -0.82101,-1.710109 c -1.01614,-2.116555 -1.42295,-2.523709 -2.63822,-2.640481 l -0.92108,-0.0885 0,2.219548 0,2.219547 -1.46418,0 -1.46417,0 0,-5.79288 z m 5.68252,-0.895416 c 0.4965,-0.449325 0.49134,-1.779592 -0.009,-2.279772 -0.29096,-0.290958 -0.61008,-0.366044 -1.55569,-0.366044 l -1.18964,0 0,1.580743 0,1.580743 1.19848,-0.0962 c 0.7799,-0.0626 1.32324,-0.209105 1.55569,-0.419467 l 0,0 z"
     id="path3010"
     inkscape:connector-curvature="0" />
  <path
     style="fill:#000000"
     d="m 130.61103,50.349335 0,-5.765187 3.93497,0 3.93497,0 0,1.098131 0,1.098131 -2.5623,0 -2.56231,0 0,1.189642 0,1.189642 2.47079,0 2.4708,0 0,1.00662 0,1.00662 -2.4708,0 -2.47079,0 0,1.464174 0,1.464174 2.65382,0 2.65381,0 0,1.00662 0,1.00662 -4.02648,0 -4.02648,0 0,-5.765187 z"
     id="path3012"
     inkscape:connector-curvature="0" />
  <path
     style="fill:#000000"
     d="m 122.19203,51.447466 0,-4.667056 -2.02237,0 -2.02238,0 0.0549,-1.052375 0.0549,-1.052376 5.26188,-0.04856 5.26188,-0.04856 0,1.100938 0,1.100937 -1.92173,0 -1.92173,0 0,4.667056 0,4.667056 -1.37267,0 -1.37266,0 0,-4.667056 z"
     id="path3014"
     inkscape:connector-curvature="0" />
  <path
     style="fill:#000000"
     d="m 106.26913,50.34221 0,-5.772313 1.60144,0.05288 1.60144,0.05288 2.10476,3.960271 2.10475,3.96027 0.0493,-4.006026 0.0493,-4.006026 1.36916,0 1.36916,0 0,5.765187 0,5.765187 -1.63151,0 -1.63152,0 -2.07467,-3.928214 -2.07468,-3.928214 -0.0493,3.928214 -0.0493,3.928214 -1.36909,0 -1.3691,0 0,-5.772312 z"
     id="path3016"
     inkscape:connector-curvature="0" />
  <path
     style="fill:#000000"
     d="M 97.392576,56.358293 C 95.605169,56.152295 94.43698,55.464133 93.776205,54.227946 93.389233,53.503991 93.36285,53.210315 93.308557,49.022427 l -0.05754,-4.438279 1.384448,0 1.384447,0 0.008,3.614681 c 0.0044,1.988075 0.07901,3.982901 0.165838,4.432947 0.21375,1.107916 0.857446,1.652528 1.95318,1.652528 1.917259,0 2.082509,-0.449758 2.082509,-5.667797 l 0,-4.032359 1.46418,0 1.46417,0 -0.004,3.889214 c -0.005,4.210875 -0.13306,5.161489 -0.84145,6.238973 -0.75147,1.142992 -2.937343,1.874373 -4.919264,1.645958 z"
     id="path3018"
     inkscape:connector-curvature="0" />
  <path
     style="fill:#000000"
     d="m 74.240317,50.349335 0,-5.765187 1.614522,0 1.614522,0 1.981556,3.754101 c 1.089857,2.064756 2.090259,3.897261 2.223116,4.072235 0.202409,0.266574 0.242502,-0.341857 0.247379,-3.7541 l 0.0058,-4.072236 1.281152,0 1.281153,0 0,5.765187 0,5.765187 -1.601441,-0.0013 -1.601441,-0.0013 -2.10475,-3.979422 -2.104751,-3.979427 -0.04933,3.980724 -0.04932,3.980724 -1.369094,0 -1.369094,0 0,-5.765187 z"
     id="path3020"
     inkscape:connector-curvature="0" />
  <path
     style="fill:#000000"
     d="m 63.259008,50.349335 0,-5.765187 4.02648,0 4.02648,0 0,1.098131 0,1.098131 -2.562305,0 -2.562306,0 0,1.189642 0,1.189642 2.379284,0 2.379283,0 0,1.00662 0,1.00662 -2.379283,0 -2.379284,0 0,1.464174 0,1.464174 2.653817,0 2.653816,0 0,1.00662 0,1.00662 -4.117991,0 -4.117991,0 0,-5.765187 z"
     id="path3022"
     inkscape:connector-curvature="0" />
  <path
     style="fill:#000000"
     d="m 53.192809,50.349335 0,-5.765187 1.372664,0 1.372663,0 0,4.758567 0,4.758567 2.653816,0 2.653817,0 0,1.00662 0,1.00662 -4.02648,0 -4.02648,0 0,-5.765187 z"
     id="path3024"
     inkscape:connector-curvature="0" />
  <path
     style="fill:#000000"
     d="m 42.211501,50.349335 0,-5.765187 3.934969,0 3.934968,0 0,1.098131 0,1.098131 -2.470794,0 -2.470794,0 0,1.189642 0,1.189642 2.379283,0 2.379284,0 0,1.00662 0,1.00662 -2.379284,0 -2.379283,0 0,1.464174 0,1.464174 2.562305,0 2.562305,0 0,1.00662 0,1.00662 -4.02648,0 -4.026479,0 0,-5.765187 z"
     id="path3026"
     inkscape:connector-curvature="0" />
  <path
     style="fill:#000000"
     d="m 36.171781,50.349335 0,-5.765187 1.464175,0 1.464174,0 0,5.765187 0,5.765187 -1.464174,0 -1.464175,0 0,-5.765187 z"
     id="path3028"
     inkscape:connector-curvature="0" />
  <path
     style="fill:#000000"
     d="m 24.458385,50.326632 0,-5.787891 3.248637,0.08066 c 2.776571,0.06894 3.368317,0.135266 4.072236,0.456466 3.18426,1.452982 2.841329,5.890446 -0.527537,6.826224 -0.364158,0.101153 -1.382753,0.184374 -2.263546,0.184935 l -1.601441,0.001 0,2.013239 0,2.01324 -1.464174,0 -1.464175,0 0,-5.78789 z m 5.916722,-0.625803 c 0.613731,-0.482761 0.796812,-1.416207 0.420497,-2.143919 -0.358787,-0.693818 -0.586941,-0.7765 -2.142686,-0.7765 l -1.266184,0 0,1.647196 0,1.647197 1.256471,0 c 0.988221,0 1.357972,-0.07984 1.731902,-0.373974 z"
     id="path3030"
     inkscape:connector-curvature="0" />
  <path
     style="fill:#000000"
     d="m 15.673339,56.289588 c -0.654303,-0.08429 -1.560261,-0.264439 -2.01324,-0.400338 l -0.823598,-0.247089 -0.05397,-1.22163 -0.05397,-1.221631 1.060593,0.487179 c 0.80853,0.371394 1.43032,0.504845 2.616278,0.561516 1.385612,0.06621 1.610709,0.03081 2.058995,-0.323804 0.289652,-0.229128 0.50331,-0.57813 0.50331,-0.822136 0,-0.800851 -0.546247,-1.168487 -2.470794,-1.662897 -3.004221,-0.771774 -3.754296,-1.462042 -3.748936,-3.450016 0.0041,-1.50443 0.513536,-2.401518 1.714924,-3.019624 0.750177,-0.385961 1.148447,-0.460444 2.470794,-0.462079 0.867052,-0.0011 2.132386,0.107524 2.811855,0.241325 l 1.235397,0.243276 0,1.15906 0,1.15906 -1.052375,-0.369837 c -1.39573,-0.490502 -3.465069,-0.542623 -4.134293,-0.104131 -0.55571,0.364115 -0.664936,1.204719 -0.215002,1.654653 0.149603,0.149603 1.04862,0.448925 1.997816,0.665159 3.042102,0.693016 3.948063,1.40144 4.097555,3.204117 0.154013,1.857188 -0.761198,3.34133 -2.303464,3.735388 -1.123577,0.28708 -2.441115,0.356372 -3.697869,0.194479 z"
     id="path3032"
     inkscape:connector-curvature="0" />
</svg>
