<?xml version="1.0" encoding="UTF-8" standalone="no"?>
<!-- Created with Inkscape (http://www.inkscape.org/) -->

<svg
   xmlns:dc="http://purl.org/dc/elements/1.1/"
   xmlns:cc="http://creativecommons.org/ns#"
   xmlns:rdf="http://www.w3.org/1999/02/22-rdf-syntax-ns#"
   xmlns:svg="http://www.w3.org/2000/svg"
   xmlns="http://www.w3.org/2000/svg"
   xmlns:sodipodi="http://sodipodi.sourceforge.net/DTD/sodipodi-0.dtd"
   xmlns:inkscape="http://www.inkscape.org/namespaces/inkscape"
   version="1.2"
   width="235"
   height="41"
   id="svg2"
   inkscape:version="0.48.3.1 r9886"
   sodipodi:docname="title-holarse-short.svg">
  <sodipodi:namedview
     pagecolor="#ffffff"
     bordercolor="#666666"
     borderopacity="1"
     objecttolerance="10"
     gridtolerance="10"
     guidetolerance="10"
     inkscape:pageopacity="0"
     inkscape:pageshadow="2"
     inkscape:window-width="1215"
     inkscape:window-height="776"
     id="namedview3085"
     showgrid="false"
     inkscape:zoom="4.6042553"
     inkscape:cx="117.5"
     inkscape:cy="20.5"
     inkscape:window-x="65"
     inkscape:window-y="24"
     inkscape:window-maximized="1"
     inkscape:current-layer="svg2" />
  <defs
     id="defs4" />
  <metadata
     id="metadata7">
    <rdf:RDF>
      <cc:Work
         rdf:about="">
        <dc:format>image/svg+xml</dc:format>
        <dc:type
           rdf:resource="http://purl.org/dc/dcmitype/StillImage" />
        <dc:title />
      </cc:Work>
    </rdf:RDF>
  </metadata>
  <g
     transform="translate(0,-1011.3622)"
     id="layer1">
    <text
       x="141.93227"
       y="1046.6034"
       id="textrechts"
       xml:space="preserve"
       style="font-size:40px;font-style:normal;font-weight:normal;line-height:125%;letter-spacing:0px;word-spacing:0px;fill:#e6e6e6;fill-opacity:1;stroke:none;font-family:Sans"><tspan
         x="141.93227"
         y="1046.6034"
         id="tspan3007"
         style="font-weight:bold;fill:#e6e6e6;-inkscape-font-specification:Sans Bold">RSE</tspan></text>
    <text
       x="96.547096"
       y="1078.0873"
       transform="scale(1.0283988,0.97238541)"
       id="text3780"
       xml:space="preserve"
       style="font-size:61.21979904px;font-style:normal;font-weight:normal;line-height:125%;letter-spacing:0px;word-spacing:0px;fill:#8d3435;fill-opacity:1;stroke:none;font-family:Sans"><tspan
         x="96.547096"
         y="1078.0873"
         id="tspan3782"
         style="font-style:normal;font-variant:normal;font-stretch:normal;fill:#8d3435;fill-opacity:1;font-family:URW Gothic L;-inkscape-font-specification:URW Gothic L Book">a</tspan></text>
    <g
       transform="translate(-0.51129259,20.962997)"
       id="textlinks"
       style="font-size:40px;font-style:normal;font-weight:normal;line-height:125%;letter-spacing:0px;word-spacing:0px;fill:#e6e6e6;fill-opacity:1;stroke:none;font-family:Sans">
      <path
         d="m 9.4802513,996.43298 7.5195317,0 0,11.11332 11.09375,0 0,-11.11332 7.519531,0 0,29.16012 -7.519531,0 0,-12.3632 -11.09375,0 0,12.3632 -7.5195317,0 0,-29.16012"
         id="path3001"
         style="font-weight:bold;fill:#e6e6e6;-inkscape-font-specification:Sans Bold" />
      <path
         d="m 56.316189,1001.3549 c -2.291682,0 -4.069024,0.8463 -5.332031,2.539 -1.263032,1.6927 -1.894541,4.0756 -1.894532,7.1485 -9e-6,3.0599 0.6315,5.4362 1.894532,7.1289 1.263007,1.6927 3.040349,2.539 5.332031,2.539 2.304668,0 4.08852,-0.8463 5.351562,-2.539 1.262998,-1.6927 1.894507,-4.069 1.894532,-7.1289 -2.5e-5,-3.0729 -0.631534,-5.4558 -1.894532,-7.1485 -1.263042,-1.6927 -3.046894,-2.539 -5.351562,-2.539 m 0,-5.44926 c 4.687478,3e-5 8.359349,1.34117 11.015625,4.02344 2.656219,2.68232 3.984343,6.38672 3.984375,11.11332 -3.2e-5,4.7135 -1.328156,8.4114 -3.984375,11.0937 -2.656276,2.6823 -6.328147,4.0234 -11.015625,4.0234 -4.674492,0 -8.346363,-1.3411 -11.015625,-4.0234 -2.656254,-2.6823 -3.984377,-6.3802 -3.984375,-11.0937 -2e-6,-4.7266 1.328121,-8.431 3.984375,-11.11332 2.669262,-2.68227 6.341133,-4.02341 11.015625,-4.02344"
         id="path3003"
         style="font-weight:bold;fill:#e6e6e6;-inkscape-font-specification:Sans Bold" />
      <path
         d="m 76.980251,996.43298 7.519532,0 0,23.47652 13.203125,0 0,5.6836 -20.722657,0 0,-29.16012"
         id="path3005"
         style="font-weight:bold;fill:#e6e6e6;-inkscape-font-specification:Sans Bold" />
    </g>
  </g>
  <path
     style="fill:#808080"
     d="m 8.9916821,20.586876 0,-14.5517559 3.6885699,0 3.68857,0 0.05796,5.5926529 0.05796,5.592652 5.592653,0.05796 5.592652,0.05796 0,-5.650617 0,-5.6506169 3.692237,0 3.692237,0 0,14.5517559 0,14.551756 -3.692237,0 -3.692237,0 0,-6.189926 0,-6.189926 -5.64695,0 -5.64695,0 0,6.189926 0,6.189926 -3.692236,0 -3.6922369,0 0,-14.551756 z"
     id="path3087"
     inkscape:connector-curvature="0" />
  <path
     style="fill:#808080"
     d="m 51.669593,35.264127 c -4.149328,-0.95332 -7.403065,-3.422908 -9.106406,-6.911761 -1.070915,-2.193495 -1.436398,-3.767303 -1.576398,-6.788133 -0.409522,-8.836418 4.00494,-14.6304055 12.014741,-15.7693639 2.077749,-0.2954468 5.605514,-0.130833 7.487807,0.3493986 4.841966,1.2353368 8.343227,4.7306453 9.680875,9.6644203 0.55602,2.050822 0.547456,7.5647 -0.01501,9.664972 -0.600953,2.243976 -1.696001,4.249923 -3.194539,5.851865 -1.585435,1.694836 -3.169915,2.701718 -5.519587,3.507507 -1.545894,0.530142 -2.103128,0.602536 -5.101891,0.66282 -2.308982,0.04642 -3.775794,-0.02637 -4.669594,-0.231725 z m 6.748911,-5.362707 c 2.967693,-1.110355 4.64311,-4.396793 4.650375,-9.122007 0.0074,-4.801716 -1.385657,-7.822864 -4.25422,-9.226321 -1.008513,-0.49342 -1.48715,-0.58775 -2.982269,-0.58775 -2.850953,0 -4.862591,1.187508 -6.076729,3.58721 -1.692323,3.344817 -1.6079,9.416341 0.173192,12.455543 0.744229,1.269932 2.37397,2.647392 3.567121,3.014941 1.503507,0.463152 3.490827,0.414052 4.92253,-0.121616 z"
     id="path3089"
     inkscape:connector-curvature="0" />
  <path
     style="fill:#808080"
     d="m 76.537893,20.586876 0,-14.5517559 3.690366,0 3.690366,0 0.05617,11.7825789 0.05617,11.782578 6.570009,0.05748 6.57001,0.05748 0,2.711693 0,2.711696 -10.316544,0 -10.316543,0 0,-14.551756 z"
     id="path3091"
     inkscape:connector-curvature="0" />
  <path
     style="fill:#808080"
     d="m 145.60444,20.695471 0,-14.4431605 7.22158,0.00377 c 7.76098,0.00405 9.1238,0.1424234 11.31231,1.1485704 2.2669,1.0421803 3.35769,2.5079413 3.83989,5.1598629 0.6749,3.711689 -0.74645,6.734563 -3.91095,8.317698 l -1.49998,0.750408 1.19875,0.586489 c 1.74256,0.852555 2.72963,2.264381 5.49751,7.863174 1.32205,2.674213 2.40373,4.905887 2.40373,4.959277 0,0.05339 -1.73953,0.09707 -3.86563,0.09707 l -3.86563,0 -2.10364,-4.34606 c -2.93642,-6.066552 -3.68146,-6.73065 -7.55102,-6.73065 l -1.29245,0 0,5.538355 0,5.538355 -3.69224,0 -3.69223,0 0,-14.443161 z m 13.47534,-2.121115 c 1.1679,-0.582034 1.61785,-1.502224 1.61785,-3.308644 0,-2.928457 -0.94735,-3.634537 -5.04814,-3.762485 l -2.66058,-0.08301 0,3.840878 0,3.840878 2.66058,-0.07201 c 1.99641,-0.05403 2.85273,-0.167769 3.43029,-0.455603 z"
     id="path3093"
     inkscape:connector-curvature="0" />
  <path
     style="fill:#808080"
     d="m 184.69871,35.656603 c -2.58412,-0.317289 -4.07688,-0.604015 -6.24423,-1.199384 l -2.44339,-0.671196 0,-3.128187 0,-3.128185 1.0722,0.543324 c 2.95947,1.49968 6.04946,2.288003 8.96143,2.286257 2.47912,-0.0015 3.46585,-0.259141 4.45144,-1.162369 1.44413,-1.323449 1.11118,-3.649317 -0.65139,-4.55039 -0.45467,-0.232438 -2.54644,-0.843905 -4.64838,-1.358816 -2.12473,-0.520495 -4.40977,-1.22601 -5.14606,-1.588873 -3.29517,-1.623928 -4.73463,-4.553513 -4.22781,-8.604384 0.82609,-6.6025665 7.64494,-8.9236313 18.97554,-6.459064 l 1.73752,0.3779363 0.0606,3.0116227 c 0.0566,2.813691 0.0352,3.001334 -0.32579,2.855072 -3.09644,-1.254607 -5.92558,-1.868391 -8.58913,-1.863418 -3.15173,0.0059 -4.36471,0.434268 -5.0652,1.788866 -0.4551,0.880072 -0.29015,2.218459 0.35851,2.908932 0.59948,0.638112 1.72659,1.01265 5.19918,1.727682 4.55833,0.938593 6.5143,1.687284 8.06271,3.086175 1.74748,1.578746 2.48531,4.152224 2.12287,7.404396 -0.42723,3.833613 -2.78182,6.386182 -6.73697,7.303444 -1.43791,0.333472 -5.58254,0.585228 -6.92365,0.420559 z"
     id="path3095"
     inkscape:connector-curvature="0" />
  <path
     style="fill:#808080"
     d="m 205.33179,20.695471 0,-14.4431605 9.99076,0 9.99076,0 0,2.7148799 0,2.7148796 -6.29852,0 -6.29852,0 0,2.823475 0,2.823475 5.97273,0 5.97274,0 0,2.71488 0,2.71488 -5.97274,0 -5.97273,0 0,3.475046 0,3.475046 6.51571,0 6.51571,0 0,2.71488 0,2.71488 -10.20795,0 -10.20795,0 0,-14.443161 z"
     id="path3097"
     inkscape:connector-curvature="0" />
  <path
     style="fill:#808080"
     d=""
     id="path3099"
     inkscape:connector-curvature="0" />
  <path
     style="fill:#808080"
     d="m 185.51317,5.4568984 c 0.14932,-0.060251 0.39366,-0.060251 0.54298,0 0.14931,0.060251 0.0271,0.1095478 -0.27149,0.1095478 -0.29864,0 -0.42081,-0.049296 -0.27149,-0.1095478 z"
     id="path3101"
     inkscape:connector-curvature="0" />
</svg>
